<?xml version="1.0" standalone="no"?>
<!DOCTYPE svg PUBLIC "-//W3C//DTD SVG 20010904//EN"
 "http://www.w3.org/TR/2001/REC-SVG-20010904/DTD/svg10.dtd">
<svg version="1.0" xmlns="http://www.w3.org/2000/svg"
 width="300.000000pt" height="300.000000pt" viewBox="0 0 300.000000 300.000000"
 preserveAspectRatio="xMidYMid meet">
<metadata>
Created by potrace 1.10, written by Peter Selinger 2001-2011
</metadata>
<g transform="translate(0.000000,300.000000) scale(0.100000,-0.100000)"
fill="#000000" stroke="none">
<path d="M1289 2684 c-298 -53 -575 -227 -757 -472 -310 -419 -310 -1005 0
-1424 311 -420 856 -592 1351 -426 111 37 167 64 272 133 347 228 545 593 545
1005 0 407 -192 766 -535 1000 -135 91 -296 156 -462 185 -105 18 -311 18
-414 -1z m422 -19 c229 -38 449 -153 625 -329 141 -142 227 -281 289 -470 139
-424 28 -885 -289 -1202 -229 -228 -511 -345 -836 -345 -326 -1 -605 115 -836
345 -230 230 -345 510 -345 836 0 326 115 604 345 836 209 210 455 321 771
347 59 5 179 -3 276 -18z"/>
<path d="M1410 2576 c0 -3 16 -32 35 -65 22 -38 35 -72 35 -95 0 -32 3 -36 25
-36 21 0 25 5 25 31 0 19 16 60 39 100 l40 69 -28 0 c-25 0 -32 -7 -51 -52
l-23 -53 -23 53 c-20 43 -28 52 -49 52 -14 0 -25 -2 -25 -4z"/>
<path d="M1228 2547 c-55 -12 -54 -9 -29 -122 l18 -80 39 3 c55 4 107 32 123
66 18 38 1 97 -36 125 -28 23 -43 24 -115 8z m96 -49 c33 -47 13 -98 -45 -112
-24 -5 -27 -2 -32 27 -3 17 -9 46 -12 64 -6 25 -4 32 11 36 41 10 64 6 78 -15z"/>
<path d="M1737 2522 c-34 -37 -17 -73 48 -103 32 -15 45 -46 22 -54 -24 -10
-67 13 -67 35 0 11 -4 20 -9 20 -5 0 -16 3 -25 6 -25 9 -20 -30 7 -62 18 -20
35 -28 73 -31 53 -5 65 2 78 44 8 26 -18 56 -74 86 -31 17 -32 19 -17 34 13
14 21 14 42 5 14 -6 25 -18 25 -27 0 -8 4 -15 9 -15 5 0 16 -3 25 -6 27 -10
19 25 -13 57 -36 35 -97 41 -124 11z"/>
<path d="M1091 2501 c-12 -8 -9 -21 17 -76 18 -36 32 -68 32 -70 0 -13 -35
-35 -57 -35 -21 0 -29 10 -55 69 -29 65 -32 69 -54 59 l-23 -11 31 -61 c16
-33 37 -69 46 -78 20 -24 69 -23 109 2 47 28 51 59 16 137 -32 71 -39 78 -62
64z"/>
<path d="M1906 2394 c-26 -48 -45 -88 -44 -89 22 -16 139 -71 143 -67 15 15 0
34 -40 54 -46 22 -52 32 -36 57 7 11 17 9 55 -12 39 -22 48 -24 53 -11 6 17
-20 40 -54 50 -24 7 -28 20 -14 43 7 12 17 9 55 -13 45 -26 66 -27 66 -3 0 10
-117 77 -134 77 -3 0 -25 -39 -50 -86z"/>
<path d="M840 2358 c-36 -27 -66 -54 -68 -59 -7 -17 29 -21 47 -5 10 9 20 16
22 16 3 0 27 -29 53 -65 46 -62 49 -65 67 -50 17 16 16 20 -33 82 -53 67 -53
65 -8 93 13 8 13 10 0 23 -13 13 -23 9 -80 -35z"/>
<path d="M2077 2301 l-65 -79 63 -51 c51 -41 65 -48 75 -37 8 11 1 22 -35 51
-43 36 -45 39 -29 56 16 17 18 17 55 -13 30 -24 42 -29 51 -20 9 9 2 20 -27
46 -35 29 -38 35 -26 50 12 15 18 13 57 -19 48 -40 50 -40 57 -21 4 9 -17 34
-52 65 l-58 50 -66 -78z"/>
<path d="M1368 2260 c-369 -67 -638 -387 -638 -760 0 -313 193 -600 480 -713
115 -45 150 -51 290 -52 114 0 147 4 210 24 290 90 484 302 547 595 21 97 13
266 -17 361 -81 259 -267 445 -525 525 -78 24 -266 35 -347 20z m316 -30 c340
-89 566 -381 566 -729 -1 -304 -157 -550 -433 -682 -285 -136 -641 -70 -860
160 -139 146 -207 317 -207 521 0 300 151 539 429 679 142 72 345 92 505 51z"/>
<path d="M1414 2059 l-101 -8 -136 -78 c-135 -77 -137 -78 -137 -113 0 -20 -5
-41 -11 -47 -6 -6 -9 -23 -7 -39 4 -41 42 -41 46 0 2 16 -1 33 -7 39 -6 6 -11
23 -11 39 0 23 5 28 33 33 59 11 111 2 116 -20 5 -29 21 -36 71 -29 69 9 140
32 195 62 48 27 55 39 40 74 -5 12 8 24 59 53 36 20 66 39 66 41 0 6 -98 3
-216 -7z m126 -18 c0 -12 -113 -97 -162 -122 -39 -20 -99 -24 -207 -13 l-62 7
33 20 c129 78 171 97 236 103 31 3 59 8 61 10 9 8 101 4 101 -5z m-223 -157
c-11 -11 -67 -14 -67 -4 0 6 17 10 37 10 20 0 34 -3 30 -6z"/>
<path d="M1660 1984 c0 -3 108 -55 123 -59 4 -2 14 -3 22 -4 9 0 23 -14 32
-29 9 -16 29 -36 45 -45 15 -9 33 -29 39 -44 6 -15 19 -37 29 -48 11 -11 19
-29 18 -40 0 -11 7 -36 15 -55 19 -40 22 -23 6 35 -14 54 -32 95 -41 95 -5 0
-8 6 -8 13 0 19 -121 134 -150 142 -14 4 -31 12 -38 18 -11 9 -92 28 -92 21z"/>
<path d="M1118 1760 c-19 -30 -38 -71 -41 -90 -3 -19 -9 -47 -12 -62 -5 -18
-2 -40 8 -60 8 -18 13 -45 10 -59 -3 -15 0 -30 6 -33 7 -5 11 2 11 18 0 14 5
28 10 31 6 4 3 16 -10 32 -24 30 -26 71 -5 99 9 12 12 31 9 52 -4 20 -2 32 5
32 6 0 11 6 11 14 0 8 9 21 21 30 12 8 19 22 17 33 -3 13 -13 4 -40 -37z"/>
<path d="M1481 1704 c-13 -9 -29 -32 -37 -50 -12 -29 -12 -39 -1 -66 17 -40
35 -56 73 -63 41 -8 93 26 101 65 3 17 11 30 18 30 7 0 15 7 19 15 3 8 15 15
26 15 11 0 23 -7 26 -15 4 -8 12 -15 20 -15 8 0 14 -8 14 -19 0 -10 11 -30 25
-45 35 -37 105 -37 134 0 32 41 28 98 -9 136 -27 26 -36 30 -68 25 -34 -6 -72
-36 -85 -69 -5 -10 -9 -9 -17 5 -14 22 -66 23 -78 1 -10 -18 -32 -11 -32 10 0
41 -89 69 -129 40z m94 -29 c16 -15 25 -36 25 -55 0 -36 -38 -80 -69 -80 -35
0 -74 43 -74 80 0 24 7 40 27 57 35 30 61 29 91 -2z m289 14 c31 -14 49 -61
36 -93 -10 -28 -47 -56 -73 -56 -29 0 -67 45 -67 80 0 19 9 40 25 55 27 28 42
30 79 14z"/>
<path d="M1515 1629 c-9 -27 19 -59 36 -42 15 15 7 57 -13 61 -10 2 -19 -6
-23 -19z"/>
<path d="M1807 1643 c-11 -10 -8 -51 4 -59 18 -10 42 21 34 45 -6 21 -25 28
-38 14z"/>
<path d="M1918 1538 c-4 -21 1 -31 23 -47 36 -27 36 -27 66 9 15 18 34 30 49
30 13 0 24 5 24 10 0 18 -40 10 -77 -15 -39 -26 -58 -22 -73 19 -6 18 -7 17
-12 -6z"/>
<path d="M1600 1525 c0 -38 113 -50 145 -15 19 21 13 42 -7 22 -15 -15 -104
-16 -113 -2 -9 15 -25 12 -25 -5z"/>
<path d="M2082 1495 c-7 -25 -12 -59 -12 -75 0 -20 -5 -30 -15 -30 -9 0 -68
29 -133 65 -64 36 -122 65 -129 65 -17 0 -123 -153 -113 -164 12 -12 -20 -58
-36 -52 -7 3 -18 -1 -24 -9 -9 -10 14 -27 115 -84 69 -39 133 -71 143 -71 10
0 52 49 110 130 84 118 94 137 106 200 15 78 7 95 -12 25z m-180 -62 c57 -31
105 -58 107 -59 4 -4 -104 -160 -132 -191 l-20 -22 -66 36 c-36 20 -68 39 -71
43 -3 4 -15 12 -27 19 -26 13 -30 39 -9 47 7 3 16 22 20 43 3 21 15 46 26 56
11 10 30 34 41 52 11 18 22 33 24 33 3 0 51 -26 107 -57z"/>
<path d="M1326 1491 c-11 -17 69 -73 109 -76 14 -2 10 6 -20 32 -26 22 -45 32
-59 28 -12 -3 -15 -2 -8 1 6 3 10 10 6 15 -7 11 -21 12 -28 0z"/>
<path d="M1315 1402 c-20 -2 -34 -11 -40 -25 -7 -15 -17 -21 -32 -19 -13 2
-23 -2 -23 -7 0 -15 30 -14 49 2 42 35 111 38 111 5 0 -9 3 -9 12 0 8 8 8 15
-1 25 -14 18 -36 23 -76 19z"/>
<path d="M1555 1384 c-21 -16 -21 -16 18 -18 15 -1 27 3 28 9 0 5 4 1 9 -10 7
-17 9 -17 9 -2 1 9 6 18 11 18 6 1 14 2 19 3 5 0 12 4 16 7 13 13 -92 6 -110
-7z"/>
<path d="M682 2215 c-38 -32 -48 -69 -27 -101 21 -32 54 -30 100 6 41 33 58
34 63 6 5 -26 -28 -58 -54 -52 -28 7 -55 -21 -33 -35 36 -23 88 0 114 51 20
38 19 63 -3 83 -28 25 -57 21 -97 -14 -35 -31 -65 -33 -65 -6 0 20 33 47 57
47 17 0 33 17 33 36 0 15 -63 0 -88 -21z"/>
<path d="M2252 2195 c-28 -24 -64 -52 -79 -63 -27 -20 -27 -22 -11 -38 16 -17
19 -17 36 -1 19 18 62 23 62 8 0 -5 -7 -28 -15 -52 -15 -40 -14 -44 4 -62 19
-19 19 -19 35 36 9 30 16 61 16 67 0 9 16 11 61 6 l60 -7 -16 25 c-15 22 -25
25 -83 28 l-66 3 37 25 c39 26 45 41 24 58 -9 8 -26 -1 -65 -33z"/>
<path d="M570 2071 c-9 -17 -2 -24 54 -55 70 -39 78 -50 63 -83 -15 -35 -32
-34 -103 4 -53 28 -68 32 -75 21 -14 -22 -11 -26 54 -63 78 -43 101 -44 137
-5 33 36 43 78 25 106 -11 17 -126 94 -140 94 -3 0 -9 -9 -15 -19z"/>
<path d="M2355 1998 c-44 -22 -81 -41 -83 -43 -1 -1 13 -34 33 -73 25 -51 40
-70 50 -66 21 8 19 22 -10 71 -23 41 -23 43 -5 53 28 15 29 14 51 -35 11 -25
24 -45 29 -45 20 0 20 21 0 59 -25 49 -25 48 0 61 17 9 22 5 41 -40 20 -46 40
-62 53 -41 7 11 -56 140 -69 140 -5 0 -46 -18 -90 -41z"/>
<path d="M465 1863 c-10 -27 -5 -31 68 -48 39 -10 76 -21 80 -25 5 -4 -30 -11
-77 -15 -90 -7 -106 -16 -109 -60 -2 -26 2 -28 90 -54 51 -16 95 -26 98 -23 3
3 5 13 5 22 0 13 -16 22 -58 34 -32 9 -66 16 -75 16 -9 0 -17 4 -17 9 0 4 35
11 78 15 42 4 83 10 89 14 7 4 14 23 15 41 l3 33 -92 27 c-76 23 -93 25 -98
14z"/>
<path d="M2438 1822 c-85 -25 -97 -33 -80 -60 7 -9 16 -10 41 -1 37 13 39 12
47 -28 6 -28 3 -32 -31 -43 -25 -8 -35 -16 -31 -27 3 -8 6 -18 6 -23 0 -16 72
14 79 34 5 13 10 16 15 8 9 -16 59 -15 74 0 7 7 12 23 12 37 0 42 -24 131 -35
130 -5 -1 -49 -13 -97 -27z m94 -71 c2 -14 -4 -28 -14 -35 -22 -13 -35 -1 -44
41 -5 27 -3 32 17 35 26 4 35 -5 41 -41z"/>
<path d="M501 1419 c-1 -30 -26 -55 -61 -62 l-25 -4 26 -2 c32 -1 59 -29 60
-62 1 -26 4 -20 13 23 5 20 15 30 39 37 22 6 26 9 11 10 -26 1 -51 28 -57 61
l-4 25 -2 -26z"/>
<path d="M2491 1425 c-2 -34 -30 -65 -59 -66 l-27 -2 25 -4 c34 -7 49 -20 59
-57 8 -28 9 -29 10 -6 2 35 13 49 47 60 22 6 24 8 8 9 -26 1 -51 28 -57 61 -3
19 -5 20 -6 5z"/>
<path d="M710 871 c-29 -25 -32 -31 -21 -45 33 -39 91 -25 91 22 0 25 -16 52
-29 52 -4 0 -22 -13 -41 -29z m56 -6 c8 -20 -13 -45 -37 -45 -29 0 -32 19 -7
40 28 24 37 25 44 5z"/>
<path d="M2232 888 c-7 -7 -12 -21 -12 -31 0 -17 5 -18 35 -13 28 6 35 4 35
-9 0 -9 -9 -15 -22 -15 -18 0 -20 -2 -9 -9 19 -12 39 -3 47 21 9 30 -10 44
-42 29 -32 -14 -46 -5 -21 14 10 7 14 16 9 19 -5 3 -14 0 -20 -6z"/>
<path d="M2113 773 l-22 -15 31 -39 32 -39 23 22 c28 26 29 42 3 68 -24 24
-37 24 -67 3z m60 -25 c8 -12 7 -21 -2 -32 -12 -14 -15 -13 -33 9 -11 14 -16
30 -13 35 9 15 36 8 48 -12z"/>
<path d="M826 761 c-41 -46 18 -107 64 -66 25 23 26 47 2 68 -24 22 -45 21
-66 -2z m62 -27 c4 -25 -20 -47 -42 -38 -16 6 -22 45 -9 58 14 14 48 1 51 -20z"/>
<path d="M2017 703 c-3 -5 7 -26 21 -48 14 -22 27 -35 29 -29 5 14 -44 88 -50
77z"/>
<path d="M971 656 c-12 -18 -21 -40 -21 -47 1 -10 4 -9 11 4 15 25 29 21 30
-10 1 -21 3 -23 6 -9 3 11 15 27 26 37 21 17 22 17 3 38 -25 28 -31 27 -55
-13z"/>
<path d="M1924 635 c-6 -24 -7 -24 -20 -8 -8 10 -14 13 -14 6 0 -18 32 -83 42
-83 5 0 4 9 -2 20 -8 16 -8 20 4 20 8 0 18 -4 21 -10 8 -12 25 -13 25 -2 0 5
-11 14 -25 20 -22 10 -24 15 -15 31 13 24 13 31 0 31 -5 0 -12 -11 -16 -25z"/>
<path d="M1111 579 l-33 -40 27 7 c21 5 27 3 32 -15 3 -11 9 -21 14 -21 12 0
12 97 0 104 -4 3 -23 -13 -40 -35z"/>
<path d="M1658 565 c-3 -3 -1 -26 5 -50 11 -46 26 -55 57 -35 12 8 9 10 -12
10 -34 0 -36 13 -5 28 l22 11 -22 0 c-33 1 -37 18 -6 29 l28 10 -31 1 c-17 1
-33 -1 -36 -4z"/>
<path d="M1364 545 c14 -11 17 -22 13 -50 -3 -19 -2 -35 2 -35 5 0 11 18 15
40 4 27 11 40 22 40 8 0 12 5 9 10 -3 6 -23 10 -43 10 -34 -1 -36 -2 -18 -15z"/>
<path d="M1500 506 c0 -25 5 -48 10 -51 6 -4 10 5 10 19 0 19 5 26 20 26 13 0
20 -7 20 -20 0 -11 5 -20 10 -20 6 0 10 18 10 39 0 22 -4 43 -10 46 -5 3 -10
-3 -10 -14 0 -14 -6 -21 -20 -21 -13 0 -20 7 -20 20 0 11 -4 20 -10 20 -5 0
-10 -20 -10 -44z"/>
</g>
</svg>
