<svg id="svg" version="1.1" xmlns="http://www.w3.org/2000/svg" xmlns:xlink="http://www.w3.org/1999/xlink" width="400" height="200" viewBox="0, 0, 400,200"><g id="svgg"><path id="path0" d="M0.000 77.500 C 0.000 120.125,0.026 155.000,0.058 155.000 C 0.090 155.000,1.104 154.623,2.312 154.162 C 27.058 144.722,54.593 156.290,65.148 180.559 C 67.532 186.041,69.156 193.478,69.165 198.958 L 69.167 200.000 93.374 200.000 L 117.581 200.000 130.999 186.603 L 144.417 173.207 145.833 172.833 C 147.553 172.379,150.127 171.839,150.583 171.836 C 150.806 171.834,146.262 176.488,136.833 185.917 L 122.751 200.000 125.251 200.000 L 127.751 200.000 142.167 185.583 L 156.583 171.167 159.166 171.167 L 161.749 171.167 147.333 185.583 L 132.917 200.000 135.500 200.000 L 138.083 200.000 152.184 185.900 L 166.285 171.800 167.267 171.997 C 167.808 172.106,168.766 172.309,169.398 172.449 L 170.546 172.704 156.898 186.352 L 143.251 200.000 145.751 200.000 L 148.251 200.000 161.250 187.000 C 168.400 179.850,174.348 174.000,174.468 174.000 C 174.589 174.000,175.440 174.312,176.358 174.693 L 178.029 175.387 165.723 187.693 L 153.418 200.000 156.000 200.000 L 158.582 200.000 170.012 188.572 L 181.441 177.144 183.059 178.108 L 184.678 179.071 174.214 189.536 L 163.751 200.000 166.251 200.000 L 168.751 200.000 178.083 190.667 C 183.216 185.533,187.480 181.333,187.558 181.333 C 187.637 181.333,188.300 181.833,189.032 182.443 L 190.362 183.553 182.140 191.777 L 173.918 200.000 176.500 200.000 L 179.082 200.000 186.020 193.064 L 192.958 186.127 194.145 187.521 L 195.332 188.916 189.792 194.458 L 184.252 200.000 186.750 200.000 L 189.248 200.000 193.348 195.902 L 197.449 191.804 198.312 193.149 C 198.787 193.889,199.221 194.615,199.278 194.763 C 199.352 194.955,198.674 195.740,196.901 197.516 L 194.421 200.000 197.009 200.000 L 199.597 200.000 200.333 199.250 C 201.237 198.329,201.230 198.329,201.608 199.249 L 201.917 199.999 300.958 199.999 L 400.000 200.000 400.000 120.960 L 400.000 41.920 396.875 45.042 L 393.750 48.164 391.300 48.735 C 389.953 49.050,388.416 49.358,387.884 49.420 L 386.917 49.533 393.458 42.974 L 400.000 36.415 400.000 33.750 L 400.000 31.084 390.541 40.542 L 381.082 50.000 378.458 50.000 C 377.014 50.000,375.833 49.944,375.833 49.875 C 375.833 49.806,381.271 44.312,387.917 37.667 L 400.000 25.584 400.000 22.917 L 400.000 20.251 385.458 34.788 L 370.917 49.326 368.759 48.824 C 367.572 48.549,366.581 48.304,366.557 48.280 C 366.533 48.255,374.048 40.702,383.257 31.493 L 400.000 14.751 400.000 12.084 L 400.000 9.417 381.190 28.227 L 362.380 47.036 360.523 46.252 C 359.502 45.821,358.667 45.419,358.667 45.359 C 358.667 45.299,367.967 35.950,379.333 24.583 L 400.000 3.917 400.000 1.959 L 400.000 0.000 399.209 0.000 L 398.417 0.000 376.667 21.745 L 354.917 43.490 353.641 42.703 C 352.939 42.271,352.193 41.798,351.983 41.652 C 351.605 41.391,351.806 41.184,372.320 20.694 L 393.038 0.000 390.311 0.000 L 387.583 0.000 368.083 19.500 C 357.359 30.225,348.509 38.999,348.417 38.998 C 348.325 38.996,347.650 38.439,346.917 37.759 L 345.583 36.523 363.833 18.262 L 382.083 0.000 379.416 0.000 L 376.749 0.000 359.843 16.907 C 350.545 26.206,342.872 33.774,342.793 33.725 C 342.714 33.676,342.128 33.024,341.492 32.277 L 340.334 30.917 355.792 15.458 L 371.249 0.000 368.583 -0.000 L 365.917 -0.000 352.000 13.916 L 338.083 27.833 337.040 26.126 L 335.998 24.420 348.207 12.210 L 360.416 0.000 357.667 0.000 L 354.918 0.000 344.549 10.368 C 338.846 16.070,334.150 20.701,334.114 20.659 C 333.987 20.514,332.667 17.187,332.667 17.013 C 332.667 16.917,336.473 13.052,341.125 8.423 L 349.583 0.007 346.834 0.004 L 344.085 0.000 337.717 6.367 C 333.409 10.673,331.318 12.655,331.256 12.492 C 331.205 12.359,330.979 11.387,330.755 10.333 L 330.346 8.417 334.547 4.208 L 338.748 0.000 335.996 -0.000 L 333.244 -0.000 331.583 1.667 C 329.561 3.697,329.667 3.697,329.667 1.667 L 329.667 0.000 164.833 0.000 L 0.000 0.000 0.000 77.500 M24.240 8.498 C 31.157 10.266,33.491 18.859,28.430 23.919 C 23.979 28.369,16.477 27.181,13.692 21.584 C 10.149 14.466,16.547 6.530,24.240 8.498 M249.798 18.899 L 249.845 20.715 247.252 23.326 L 244.659 25.938 247.246 28.400 L 249.833 30.862 249.828 32.306 L 249.823 33.750 249.099 34.189 C 248.700 34.431,248.309 34.581,248.229 34.522 C 248.149 34.464,246.176 32.485,243.845 30.124 L 239.607 25.832 243.845 21.544 C 248.443 16.893,248.316 17.000,249.167 17.049 L 249.750 17.083 249.798 18.899 M257.833 18.873 L 257.833 20.746 255.294 23.290 L 252.754 25.833 255.294 28.377 L 257.833 30.921 257.833 32.337 L 257.833 33.752 257.099 34.196 L 256.365 34.639 252.099 30.336 C 249.753 27.970,247.833 25.963,247.833 25.876 C 247.833 25.790,249.765 23.754,252.125 21.353 C 256.416 16.988,256.417 16.988,257.125 16.994 L 257.833 17.000 257.833 18.873 M267.956 18.833 L 267.996 20.583 265.396 23.229 L 262.796 25.876 265.398 28.481 L 268.000 31.087 268.000 32.381 L 268.000 33.674 267.208 34.178 L 266.417 34.682 262.134 30.299 C 259.778 27.889,257.866 25.870,257.884 25.812 C 257.902 25.754,259.842 23.744,262.195 21.343 L 266.473 16.980 267.195 17.031 L 267.917 17.083 267.956 18.833 M275.964 18.909 L 276.012 20.734 273.469 23.281 L 270.927 25.827 273.172 28.118 C 274.406 29.378,275.548 30.509,275.708 30.631 C 275.946 30.811,276.000 31.115,276.000 32.257 L 276.000 33.662 275.345 34.095 C 274.427 34.703,274.640 34.862,269.994 30.117 L 265.785 25.818 270.017 21.521 C 274.516 16.953,274.439 17.017,275.333 17.057 L 275.917 17.083 275.964 18.909 M18.000 73.419 L 20.083 75.494 22.169 73.414 L 24.255 71.333 25.447 71.333 L 26.639 71.333 27.018 71.945 L 27.396 72.557 23.739 76.104 C 21.729 78.056,20.031 79.637,19.967 79.618 C 19.315 79.424,12.667 72.394,12.667 71.897 L 12.667 71.333 14.292 71.339 L 15.917 71.344 18.000 73.419 M17.873 80.123 L 20.000 82.245 22.127 80.123 L 24.255 78.000 25.419 78.002 C 26.573 78.004,26.587 78.009,26.974 78.607 L 27.365 79.211 25.974 80.618 C 25.209 81.391,23.554 83.001,22.295 84.195 L 20.006 86.365 16.337 82.810 C 12.834 79.417,12.667 79.226,12.667 78.627 L 12.667 78.000 14.206 78.000 L 15.745 78.000 17.873 80.123 M17.873 88.456 L 20.000 90.579 22.127 88.456 L 24.255 86.333 25.430 86.333 L 26.605 86.333 26.962 86.967 L 27.318 87.602 23.783 91.134 C 21.838 93.077,20.154 94.667,20.040 94.667 C 19.420 94.667,12.667 87.623,12.667 86.977 L 12.667 86.333 14.206 86.333 L 15.745 86.333 17.873 88.456 M17.910 95.167 L 20.098 97.333 22.244 95.167 L 24.389 93.000 25.442 93.000 C 26.498 93.000,27.760 94.037,27.235 94.473 C 27.152 94.542,25.487 96.167,23.536 98.084 L 19.990 101.570 16.328 97.911 C 13.136 94.721,12.667 94.187,12.667 93.738 C 12.667 93.021,12.713 93.000,14.306 93.000 L 15.722 93.000 17.910 95.167 M182.384 128.749 C 189.882 130.702,189.526 141.354,181.918 142.679 C 178.452 143.282,174.999 141.159,173.977 137.797 C 172.368 132.499,177.126 127.379,182.384 128.749 M48.525 140.256 C 50.254 141.119,51.298 142.501,51.647 144.385 C 52.799 150.617,43.948 153.424,41.139 147.718 C 38.842 143.054,43.898 137.946,48.525 140.256 M74.050 147.433 C 81.984 149.191,85.067 159.040,79.550 164.999 C 72.911 172.170,61.113 167.531,61.149 157.764 C 61.175 150.913,67.369 145.952,74.050 147.433 M135.000 177.376 C 135.000 177.399,130.980 181.430,126.067 186.334 C 117.205 195.178,117.141 195.238,118.025 193.795 C 121.835 187.579,127.162 182.165,133.113 178.460 C 134.885 177.357,135.000 177.291,135.000 177.376 " stroke="none" fill="#fcdbd3" fill-rule="evenodd"></path><path id="path1" d="M329.683 0.792 C 329.692 1.227,329.748 1.979,329.808 2.463 L 329.917 3.343 331.580 1.671 L 333.244 -0.000 331.455 -0.000 L 329.667 0.000 329.683 0.792 M334.558 4.208 L 330.369 8.417 330.822 10.457 C 331.071 11.579,331.310 12.532,331.353 12.575 C 331.396 12.618,334.278 9.807,337.757 6.327 L 344.082 0.000 341.415 0.000 L 338.748 0.000 334.558 4.208 M341.119 8.465 L 332.655 16.929 333.064 18.006 C 333.289 18.599,333.638 19.450,333.838 19.898 L 334.203 20.713 344.518 10.399 C 350.191 4.726,354.833 0.065,354.833 0.042 C 354.833 0.019,353.652 -0.000,352.208 -0.000 L 349.582 -0.000 341.119 8.465 M348.349 12.234 L 336.116 24.468 336.893 25.776 C 337.320 26.495,337.784 27.231,337.922 27.412 C 338.163 27.726,338.837 27.079,352.046 13.871 L 365.916 0.000 363.249 0.000 L 360.582 0.000 348.349 12.234 M355.875 15.428 C 347.419 23.910,340.500 30.893,340.500 30.946 C 340.500 30.999,341.038 31.676,341.695 32.451 L 342.891 33.859 359.779 16.971 C 369.067 7.683,376.667 0.065,376.667 0.042 C 376.667 0.019,375.448 0.001,373.958 0.003 L 371.250 0.006 355.875 15.428 M363.942 18.308 L 345.635 36.615 347.026 37.807 C 347.791 38.462,348.454 38.999,348.500 38.999 C 348.546 39.000,357.359 30.225,368.083 19.500 L 387.583 -0.000 384.916 -0.000 L 382.249 0.000 363.942 18.308 M372.374 20.709 C 352.234 40.849,351.675 41.425,352.041 41.657 C 352.248 41.788,352.986 42.249,353.682 42.683 L 354.947 43.471 376.681 21.735 L 398.416 0.000 395.750 0.000 L 393.083 0.000 372.374 20.709 M379.256 24.660 L 358.595 45.322 359.839 45.891 C 360.523 46.204,361.367 46.560,361.714 46.682 L 362.345 46.905 381.177 28.073 L 400.009 9.241 399.963 6.620 L 399.917 3.999 379.256 24.660 M20.049 8.418 C 12.549 10.048,10.193 19.593,16.083 24.488 C 21.398 28.905,29.489 26.048,30.916 19.250 C 32.261 12.845,26.428 7.032,20.049 8.418 M383.257 31.493 C 374.094 40.656,366.640 48.195,366.691 48.246 C 366.799 48.355,370.296 49.163,370.667 49.165 C 370.805 49.166,377.463 42.621,385.463 34.620 L 400.009 20.074 399.963 17.453 L 399.917 14.832 383.257 31.493 M244.055 21.423 C 241.779 23.764,239.896 25.739,239.870 25.812 C 239.813 25.975,248.138 34.500,248.354 34.500 C 248.438 34.500,248.806 34.303,249.170 34.061 L 249.833 33.622 249.833 32.355 L 249.833 31.087 247.210 28.460 L 244.587 25.833 247.210 23.206 L 249.833 20.580 249.833 18.873 L 249.833 17.167 249.013 17.167 L 248.193 17.167 244.055 21.423 M252.025 21.505 L 247.800 25.840 252.003 30.170 C 254.315 32.552,256.274 34.500,256.357 34.500 C 256.439 34.500,256.806 34.303,257.170 34.061 L 257.833 33.622 257.833 32.351 L 257.833 31.079 255.252 28.502 L 252.671 25.925 255.252 23.326 L 257.833 20.726 257.833 18.947 L 257.833 17.167 257.042 17.168 L 256.250 17.169 252.025 21.505 M262.190 21.416 C 259.886 23.753,258.000 25.759,258.000 25.873 C 258.000 26.095,266.325 34.500,266.544 34.500 C 266.615 34.500,266.972 34.303,267.337 34.061 L 268.000 33.622 268.000 32.355 L 268.000 31.087 265.377 28.460 L 262.754 25.833 265.294 23.290 L 267.833 20.746 267.833 18.956 L 267.833 17.167 267.107 17.167 L 266.380 17.167 262.190 21.416 M270.222 21.423 C 267.946 23.764,266.062 25.741,266.035 25.818 C 265.977 25.984,274.302 34.500,274.522 34.500 C 274.605 34.500,274.972 34.303,275.337 34.061 L 276.000 33.622 276.000 32.355 L 276.000 31.087 273.382 28.465 L 270.764 25.843 273.382 23.207 L 276.000 20.570 276.000 18.868 L 276.000 17.167 275.180 17.167 L 274.360 17.167 270.222 21.423 M387.958 37.791 C 381.381 44.369,376.000 49.807,376.000 49.875 C 376.000 49.944,377.144 50.000,378.542 50.000 L 381.084 50.000 390.547 40.537 L 400.009 31.073 399.963 28.453 L 399.917 25.832 387.958 37.791 M393.505 43.078 C 386.246 50.339,386.620 49.668,390.250 48.916 C 393.914 48.157,393.546 48.374,396.965 44.952 L 400.009 41.905 399.963 39.284 L 399.917 36.664 393.505 43.078 M12.833 71.973 C 12.833 72.585,12.987 72.764,16.433 76.164 L 20.034 79.715 23.632 76.117 L 27.230 72.519 26.910 71.926 C 26.591 71.334,26.590 71.333,25.423 71.333 L 24.255 71.333 22.127 73.456 L 20.000 75.579 17.873 73.456 L 15.745 71.333 14.289 71.333 L 12.833 71.333 12.833 71.973 M12.833 78.626 C 12.833 79.220,13.021 79.440,16.417 82.834 L 20.001 86.415 23.615 82.800 L 27.230 79.186 26.910 78.593 L 26.591 78.000 25.398 78.000 L 24.205 78.000 22.154 80.174 L 20.102 82.348 17.924 80.174 L 15.746 78.000 14.289 78.000 L 12.833 78.000 12.833 78.626 M12.841 87.042 C 12.849 87.742,12.889 87.789,16.426 91.226 L 20.003 94.703 22.960 91.866 C 24.586 90.306,26.216 88.720,26.581 88.342 L 27.246 87.655 26.915 87.036 C 26.590 86.429,26.562 86.416,25.500 86.370 L 24.417 86.323 22.261 88.486 L 20.105 90.649 17.883 88.491 L 15.660 86.333 14.247 86.333 L 12.833 86.333 12.841 87.042 M22.209 95.202 L 20.002 97.413 17.873 95.290 L 15.745 93.167 14.289 93.167 L 12.833 93.167 12.833 93.820 C 12.833 94.445,19.280 101.124,20.048 101.295 C 20.159 101.320,21.825 99.762,23.750 97.833 L 27.250 94.326 26.893 93.705 C 26.546 93.100,26.507 93.082,25.476 93.037 L 24.417 92.991 22.209 95.202 M178.388 128.980 C 170.962 131.731,172.849 142.667,180.750 142.667 C 188.313 142.667,190.545 132.525,183.708 129.229 C 182.416 128.606,179.737 128.480,178.388 128.980 M44.314 140.054 C 38.496 142.225,39.972 150.741,46.167 150.748 C 51.952 150.755,53.794 142.987,48.641 140.314 C 47.739 139.846,45.268 139.698,44.314 140.054 M69.583 147.429 C 61.313 149.255,58.312 159.301,64.254 165.271 C 70.082 171.128,79.954 168.418,82.005 160.398 C 83.913 152.938,77.057 145.779,69.583 147.429 M15.333 151.113 C 10.675 151.593,5.450 152.897,1.250 154.629 L 0.083 155.110 0.041 177.555 L -0.001 200.000 34.589 200.000 L 69.179 200.000 69.083 198.458 C 68.574 190.247,67.189 184.745,63.994 178.250 C 55.105 160.175,35.188 149.069,15.333 151.113 M142.333 185.583 L 127.917 200.000 130.417 200.000 L 132.917 200.000 147.225 185.692 L 161.533 171.383 160.743 171.275 C 160.309 171.215,159.233 171.167,158.351 171.167 L 156.749 171.167 142.333 185.583 M149.245 172.076 C 148.601 172.193,147.209 172.529,146.151 172.822 L 144.228 173.354 130.906 186.677 L 117.584 200.000 120.087 200.000 L 122.589 200.000 136.753 185.925 C 144.543 178.184,150.804 171.853,150.667 171.857 C 150.529 171.860,149.890 171.959,149.245 172.076 M152.167 185.917 L 138.084 200.000 140.605 200.000 L 143.126 200.000 156.722 186.381 C 164.200 178.891,170.293 172.738,170.264 172.708 C 170.221 172.665,166.443 171.833,166.291 171.833 C 166.268 171.833,159.912 178.171,152.167 185.917 M161.370 186.990 L 148.365 200.000 150.891 200.000 L 153.418 200.000 165.713 187.704 L 178.008 175.408 176.448 174.793 C 175.590 174.454,174.773 174.133,174.632 174.079 C 174.451 174.009,170.528 177.829,161.370 186.990 M169.995 188.588 L 158.584 200.000 161.177 200.000 L 163.770 200.000 174.135 189.598 C 179.836 183.877,184.500 179.160,184.500 179.117 C 184.500 179.073,183.956 178.717,183.292 178.324 C 182.627 177.932,181.931 177.513,181.745 177.393 C 181.430 177.191,180.624 177.959,169.995 188.588 M133.241 178.436 C 127.935 181.764,123.061 186.444,119.461 191.667 C 116.716 195.649,116.853 195.539,126.071 186.334 C 130.890 181.522,134.833 177.566,134.833 177.542 C 134.833 177.447,134.670 177.539,133.241 178.436 M178.243 190.674 L 168.918 200.000 171.418 200.000 L 173.918 200.000 182.120 191.792 L 190.323 183.583 189.203 182.663 C 188.587 182.156,187.967 181.653,187.825 181.545 C 187.608 181.379,186.104 182.812,178.243 190.674 M186.001 193.079 L 179.085 200.000 181.585 200.000 L 184.085 200.000 189.656 194.428 L 195.226 188.855 194.405 187.906 C 193.953 187.384,193.433 186.777,193.250 186.558 L 192.917 186.158 186.001 193.079 M193.418 195.996 L 189.419 200.000 191.920 200.000 L 194.421 200.000 196.904 197.513 L 199.387 195.026 198.707 193.881 C 198.333 193.251,197.889 192.569,197.722 192.364 L 197.417 191.991 193.418 195.996 M200.333 199.250 L 199.597 200.000 200.715 200.000 C 201.984 200.000,201.946 200.041,201.497 199.160 C 201.089 198.360,201.216 198.350,200.333 199.250 " stroke="none" fill="#e49c7c" fill-rule="evenodd"></path><path id="path2" d="M348.166 12.292 L 335.917 24.583 348.208 12.334 C 354.969 5.596,360.500 0.065,360.500 0.042 C 360.500 -0.075,359.554 0.865,348.166 12.292 M252.744 20.708 L 251.917 21.583 252.792 20.756 C 253.273 20.301,253.667 19.908,253.667 19.881 C 253.667 19.757,253.512 19.895,252.744 20.708 M385.333 34.792 L 370.750 49.417 385.375 34.834 C 398.971 21.277,400.075 20.167,399.958 20.167 C 399.935 20.167,393.354 26.748,385.333 34.792 M242.167 23.250 C 241.762 23.662,241.468 24.000,241.514 24.000 C 241.560 24.000,241.928 23.662,242.333 23.250 C 242.738 22.837,243.032 22.500,242.986 22.500 C 242.940 22.500,242.572 22.837,242.167 23.250 M268.333 23.250 C 267.928 23.662,267.635 24.000,267.681 24.000 C 267.726 24.000,268.095 23.662,268.500 23.250 C 268.905 22.837,269.199 22.500,269.153 22.500 C 269.107 22.500,268.738 22.837,268.333 23.250 M272.330 24.292 L 270.917 25.750 272.375 24.337 C 273.177 23.560,273.833 22.904,273.833 22.879 C 273.833 22.757,273.642 22.937,272.330 24.292 M245.242 25.208 L 244.583 25.917 245.292 25.258 C 245.681 24.895,246.000 24.577,246.000 24.550 C 246.000 24.423,245.855 24.550,245.242 25.208 M253.417 26.667 C 253.868 27.125,254.275 27.500,254.321 27.500 C 254.367 27.500,254.035 27.125,253.583 26.667 C 253.132 26.208,252.725 25.833,252.679 25.833 C 252.633 25.833,252.965 26.208,253.417 26.667 M240.750 27.000 C 241.108 27.367,241.438 27.667,241.484 27.667 C 241.530 27.667,241.275 27.367,240.917 27.000 C 240.559 26.633,240.228 26.333,240.182 26.333 C 240.137 26.333,240.392 26.633,240.750 27.000 M267.000 27.083 C 267.311 27.404,267.603 27.667,267.649 27.667 C 267.695 27.667,267.478 27.404,267.167 27.083 C 266.856 26.762,266.564 26.500,266.518 26.500 C 266.472 26.500,266.689 26.762,267.000 27.083 M255.000 28.250 C 255.311 28.571,255.603 28.833,255.649 28.833 C 255.695 28.833,255.478 28.571,255.167 28.250 C 254.856 27.929,254.564 27.667,254.518 27.667 C 254.472 27.667,254.689 27.929,255.000 28.250 M251.160 29.375 C 251.850 30.111,252.000 30.243,252.000 30.118 C 252.000 30.091,251.644 29.735,251.208 29.326 L 250.417 28.583 251.160 29.375 M265.583 33.833 C 265.941 34.200,266.272 34.500,266.318 34.500 C 266.363 34.500,266.108 34.200,265.750 33.833 C 265.392 33.467,265.062 33.167,265.016 33.167 C 264.970 33.167,265.225 33.467,265.583 33.833 M393.417 43.000 C 389.843 46.575,386.956 49.500,387.002 49.500 C 387.047 49.500,390.009 46.575,393.583 43.000 C 397.157 39.425,400.044 36.500,399.998 36.500 C 399.953 36.500,396.991 39.425,393.417 43.000 M26.677 73.071 L 26.104 73.750 26.752 73.131 C 27.108 72.790,27.366 72.484,27.325 72.451 C 27.284 72.418,26.992 72.697,26.677 73.071 M12.705 78.500 C 12.705 78.821,12.740 78.952,12.782 78.792 C 12.823 78.631,12.823 78.369,12.782 78.208 C 12.740 78.048,12.705 78.179,12.705 78.500 M26.245 80.208 L 25.250 81.250 26.292 80.255 C 27.259 79.331,27.410 79.167,27.286 79.167 C 27.261 79.167,26.792 79.635,26.245 80.208 M20.828 81.458 L 19.917 82.417 20.875 81.506 C 21.402 81.005,21.833 80.573,21.833 80.547 C 21.833 80.424,21.674 80.568,20.828 81.458 M15.083 90.000 C 15.535 90.458,15.942 90.833,15.987 90.833 C 16.033 90.833,15.701 90.458,15.250 90.000 C 14.799 89.542,14.392 89.167,14.346 89.167 C 14.300 89.167,14.632 89.542,15.083 90.000 M21.994 92.792 L 21.083 93.750 22.042 92.839 C 22.569 92.338,23.000 91.907,23.000 91.881 C 23.000 91.757,22.841 91.901,21.994 92.792 M17.917 99.500 C 18.368 99.958,18.775 100.333,18.821 100.333 C 18.867 100.333,18.535 99.958,18.083 99.500 C 17.632 99.042,17.225 98.667,17.179 98.667 C 17.133 98.667,17.465 99.042,17.917 99.500 M180.460 142.785 C 180.668 142.824,180.968 142.823,181.127 142.781 C 181.286 142.739,181.117 142.707,180.750 142.709 C 180.383 142.711,180.253 142.745,180.460 142.785 M19.292 150.955 C 19.681 150.990,20.319 150.990,20.708 150.955 C 21.098 150.920,20.779 150.892,20.000 150.892 C 19.221 150.892,18.902 150.920,19.292 150.955 M167.082 176.042 L 163.917 179.250 167.125 176.085 C 168.890 174.344,170.333 172.900,170.333 172.877 C 170.333 172.758,170.022 173.061,167.082 176.042 M169.906 178.375 L 169.417 178.917 169.958 178.427 C 170.463 177.971,170.577 177.833,170.448 177.833 C 170.419 177.833,170.175 178.077,169.906 178.375 M163.158 179.958 L 162.583 180.583 163.208 180.009 C 163.790 179.474,163.910 179.333,163.783 179.333 C 163.755 179.333,163.474 179.615,163.158 179.958 M161.079 182.042 L 159.750 183.417 161.125 182.087 C 161.881 181.356,162.500 180.737,162.500 180.712 C 162.500 180.591,162.314 180.765,161.079 182.042 M165.740 182.542 L 165.250 183.083 165.792 182.594 C 166.297 182.138,166.410 182.000,166.281 182.000 C 166.252 182.000,166.009 182.244,165.740 182.542 M158.991 184.125 L 158.417 184.750 159.042 184.176 C 159.623 183.641,159.743 183.500,159.616 183.500 C 159.588 183.500,159.307 183.781,158.991 184.125 M156.913 186.208 L 155.583 187.583 156.958 186.254 C 157.715 185.523,158.333 184.904,158.333 184.879 C 158.333 184.757,158.147 184.931,156.913 186.208 M124.073 185.875 L 123.583 186.417 124.125 185.927 C 124.423 185.658,124.667 185.414,124.667 185.385 C 124.667 185.257,124.529 185.370,124.073 185.875 M161.573 186.708 L 161.083 187.250 161.625 186.760 C 161.923 186.491,162.167 186.248,162.167 186.219 C 162.167 186.090,162.029 186.203,161.573 186.708 M154.824 188.292 L 154.250 188.917 154.875 188.342 C 155.457 187.808,155.577 187.667,155.449 187.667 C 155.422 187.667,155.140 187.948,154.824 188.292 M152.833 190.250 C 152.150 190.938,151.629 191.500,151.675 191.500 C 151.721 191.500,152.317 190.938,153.000 190.250 C 153.683 189.563,154.204 189.000,154.158 189.000 C 154.112 189.000,153.516 189.563,152.833 190.250 M194.073 190.042 L 193.583 190.583 194.125 190.094 C 194.630 189.638,194.743 189.500,194.615 189.500 C 194.586 189.500,194.342 189.744,194.073 190.042 M157.406 190.875 L 156.917 191.417 157.458 190.927 C 157.756 190.658,158.000 190.414,158.000 190.385 C 158.000 190.257,157.862 190.370,157.406 190.875 M192.658 191.458 L 192.083 192.083 192.708 191.509 C 193.052 191.193,193.333 190.912,193.333 190.884 C 193.333 190.757,193.192 190.877,192.658 191.458 M176.740 192.042 L 176.250 192.583 176.792 192.094 C 177.297 191.638,177.410 191.500,177.281 191.500 C 177.252 191.500,177.009 191.744,176.740 192.042 M150.658 192.458 L 150.083 193.083 150.708 192.509 C 151.290 191.974,151.410 191.833,151.283 191.833 C 151.255 191.833,150.974 192.115,150.658 192.458 M191.240 192.875 L 190.750 193.417 191.292 192.927 C 191.797 192.471,191.910 192.333,191.781 192.333 C 191.752 192.333,191.509 192.577,191.240 192.875 M175.240 193.542 L 174.750 194.083 175.292 193.594 C 175.797 193.138,175.910 193.000,175.781 193.000 C 175.752 193.000,175.509 193.244,175.240 193.542 M154.573 193.708 L 154.083 194.250 154.625 193.760 C 154.923 193.491,155.167 193.248,155.167 193.219 C 155.167 193.090,155.029 193.203,154.573 193.708 M125.915 196.708 L 122.583 200.083 125.958 196.752 C 129.094 193.656,129.409 193.333,129.290 193.333 C 129.266 193.333,127.748 194.852,125.915 196.708 M149.240 193.875 L 148.750 194.417 149.292 193.927 C 149.590 193.658,149.833 193.414,149.833 193.385 C 149.833 193.257,149.696 193.370,149.240 193.875 M189.906 194.208 L 189.417 194.750 189.958 194.260 C 190.463 193.804,190.577 193.667,190.448 193.667 C 190.419 193.667,190.175 193.910,189.906 194.208 M173.991 194.792 L 173.417 195.417 174.042 194.842 C 174.385 194.526,174.667 194.245,174.667 194.217 C 174.667 194.090,174.526 194.210,173.991 194.792 M153.240 195.042 L 152.750 195.583 153.292 195.094 C 153.590 194.825,153.833 194.581,153.833 194.552 C 153.833 194.423,153.696 194.537,153.240 195.042 M147.906 195.208 L 147.417 195.750 147.958 195.260 C 148.256 194.991,148.500 194.748,148.500 194.719 C 148.500 194.590,148.362 194.703,147.906 195.208 M188.491 195.625 L 187.917 196.250 188.542 195.676 C 189.123 195.141,189.243 195.000,189.116 195.000 C 189.088 195.000,188.807 195.281,188.491 195.625 M172.491 196.292 L 171.917 196.917 172.542 196.342 C 173.123 195.808,173.243 195.667,173.116 195.667 C 173.088 195.667,172.807 195.948,172.491 196.292 M151.906 196.375 L 151.417 196.917 151.958 196.427 C 152.256 196.158,152.500 195.914,152.500 195.885 C 152.500 195.757,152.362 195.870,151.906 196.375 M146.491 196.625 L 145.917 197.250 146.542 196.676 C 147.123 196.141,147.243 196.000,147.116 196.000 C 147.088 196.000,146.807 196.281,146.491 196.625 M187.158 196.958 L 186.583 197.583 187.208 197.009 C 187.552 196.693,187.833 196.412,187.833 196.384 C 187.833 196.257,187.692 196.377,187.158 196.958 M171.158 197.625 L 170.583 198.250 171.208 197.676 C 171.790 197.141,171.910 197.000,171.783 197.000 C 171.755 197.000,171.474 197.281,171.158 197.625 M150.406 197.875 L 149.917 198.417 150.458 197.927 C 150.756 197.658,151.000 197.414,151.000 197.385 C 151.000 197.257,150.862 197.370,150.406 197.875 M145.073 198.042 L 144.583 198.583 145.125 198.094 C 145.423 197.825,145.667 197.581,145.667 197.552 C 145.667 197.423,145.529 197.537,145.073 198.042 M69.042 198.250 C 69.044 198.617,69.078 198.747,69.118 198.540 C 69.158 198.332,69.156 198.032,69.115 197.873 C 69.073 197.714,69.040 197.883,69.042 198.250 M185.740 198.375 L 185.250 198.917 185.792 198.427 C 186.297 197.971,186.410 197.833,186.281 197.833 C 186.252 197.833,186.009 198.077,185.740 198.375 M169.742 199.042 L 169.083 199.750 169.792 199.091 C 170.181 198.729,170.500 198.410,170.500 198.383 C 170.500 198.257,170.355 198.383,169.742 199.042 M149.073 199.208 L 148.583 199.750 149.125 199.260 C 149.630 198.804,149.743 198.667,149.615 198.667 C 149.586 198.667,149.342 198.910,149.073 199.208 M143.740 199.375 L 143.250 199.917 143.792 199.427 C 144.090 199.158,144.333 198.914,144.333 198.885 C 144.333 198.757,144.196 198.870,143.740 199.375 " stroke="none" fill="#ecb49c" fill-rule="evenodd"></path><path id="path3" d="M381.083 28.208 L 362.250 47.083 381.125 28.250 C 398.673 10.742,400.075 9.333,399.958 9.333 C 399.935 9.333,391.441 17.827,381.083 28.208 M267.896 18.917 C 267.896 19.925,267.924 20.316,267.957 19.786 C 267.990 19.255,267.990 18.430,267.956 17.952 C 267.922 17.474,267.895 17.908,267.896 18.917 M264.833 18.583 C 264.428 18.996,264.135 19.333,264.181 19.333 C 264.226 19.333,264.595 18.996,265.000 18.583 C 265.405 18.171,265.699 17.833,265.653 17.833 C 265.607 17.833,265.238 18.171,264.833 18.583 M248.412 22.042 L 247.250 23.250 248.458 22.088 C 249.123 21.449,249.667 20.905,249.667 20.879 C 249.667 20.757,249.492 20.919,248.412 22.042 M250.833 22.583 C 250.428 22.996,250.135 23.333,250.181 23.333 C 250.226 23.333,250.595 22.996,251.000 22.583 C 251.405 22.171,251.699 21.833,251.653 21.833 C 251.607 21.833,251.238 22.171,250.833 22.583 M240.409 25.042 L 239.750 25.750 240.458 25.091 C 240.848 24.729,241.167 24.410,241.167 24.383 C 241.167 24.257,241.022 24.383,240.409 25.042 M266.575 25.042 L 265.917 25.750 266.625 25.091 C 267.015 24.729,267.333 24.410,267.333 24.383 C 267.333 24.257,267.188 24.383,266.575 25.042 M272.917 28.000 C 274.106 29.192,275.116 30.167,275.162 30.167 C 275.208 30.167,274.272 29.192,273.083 28.000 C 271.894 26.808,270.884 25.833,270.838 25.833 C 270.792 25.833,271.728 26.808,272.917 28.000 M249.250 27.500 C 249.701 27.958,250.108 28.333,250.154 28.333 C 250.200 28.333,249.868 27.958,249.417 27.500 C 248.965 27.042,248.558 26.667,248.513 26.667 C 248.467 26.667,248.799 27.042,249.250 27.500 M248.250 29.500 C 249.071 30.325,249.781 31.000,249.826 31.000 C 249.872 31.000,249.238 30.325,248.417 29.500 C 247.595 28.675,246.886 28.000,246.840 28.000 C 246.794 28.000,247.429 28.675,248.250 29.500 M263.750 32.000 C 264.294 32.550,264.777 33.000,264.823 33.000 C 264.869 33.000,264.461 32.550,263.917 32.000 C 263.372 31.450,262.890 31.000,262.844 31.000 C 262.798 31.000,263.206 31.450,263.750 32.000 M273.083 33.333 C 273.535 33.792,273.942 34.167,273.987 34.167 C 274.033 34.167,273.701 33.792,273.250 33.333 C 272.799 32.875,272.392 32.500,272.346 32.500 C 272.300 32.500,272.632 32.875,273.083 33.333 M18.333 73.917 C 19.201 74.787,19.948 75.500,19.993 75.500 C 20.039 75.500,19.367 74.787,18.500 73.917 C 17.633 73.046,16.886 72.333,16.840 72.333 C 16.794 72.333,17.466 73.046,18.333 73.917 M24.745 75.042 L 23.750 76.083 24.792 75.089 C 25.759 74.164,25.910 74.000,25.786 74.000 C 25.761 74.000,25.292 74.469,24.745 75.042 M14.500 81.083 C 14.811 81.404,15.103 81.667,15.149 81.667 C 15.195 81.667,14.978 81.404,14.667 81.083 C 14.356 80.762,14.064 80.500,14.018 80.500 C 13.972 80.500,14.189 80.762,14.500 81.083 M23.245 83.208 L 22.250 84.250 23.292 83.255 C 24.259 82.331,24.410 82.167,24.286 82.167 C 24.261 82.167,23.792 82.635,23.245 83.208 M22.081 88.542 L 19.917 90.750 22.125 88.586 C 23.340 87.395,24.333 86.402,24.333 86.377 C 24.333 86.258,24.091 86.490,22.081 88.542 M17.417 92.333 C 17.775 92.700,18.105 93.000,18.151 93.000 C 18.197 93.000,17.941 92.700,17.583 92.333 C 17.225 91.967,16.895 91.667,16.849 91.667 C 16.803 91.667,17.059 91.967,17.417 92.333 M13.547 93.123 C 13.985 93.157,14.660 93.157,15.047 93.122 C 15.434 93.087,15.075 93.059,14.250 93.059 C 13.425 93.060,13.109 93.088,13.547 93.123 M17.250 94.667 C 18.071 95.492,18.781 96.167,18.826 96.167 C 18.872 96.167,18.238 95.492,17.417 94.667 C 16.595 93.842,15.886 93.167,15.840 93.167 C 15.794 93.167,16.429 93.842,17.250 94.667 M64.073 150.375 L 63.583 150.917 64.125 150.427 C 64.630 149.971,64.743 149.833,64.615 149.833 C 64.586 149.833,64.342 150.077,64.073 150.375 M17.708 150.948 C 17.869 150.990,18.131 150.990,18.292 150.948 C 18.452 150.906,18.321 150.872,18.000 150.872 C 17.679 150.872,17.548 150.906,17.708 150.948 M21.794 150.951 C 22.001 150.991,22.301 150.990,22.460 150.948 C 22.620 150.906,22.450 150.874,22.083 150.875 C 21.717 150.877,21.586 150.911,21.794 150.951 M54.333 164.885 C 54.333 164.914,54.577 165.158,54.875 165.427 L 55.417 165.917 54.927 165.375 C 54.471 164.870,54.333 164.757,54.333 164.885 M129.740 198.042 L 129.250 198.583 129.792 198.094 C 130.090 197.825,130.333 197.581,130.333 197.552 C 130.333 197.423,130.196 197.537,129.740 198.042 " stroke="none" fill="#f4bfac" fill-rule="evenodd"></path><path id="path4" d="M381.240 0.875 L 380.750 1.417 381.292 0.927 C 381.797 0.471,381.910 0.333,381.781 0.333 C 381.752 0.333,381.509 0.577,381.240 0.875 M379.906 2.208 L 379.417 2.750 379.958 2.260 C 380.463 1.804,380.577 1.667,380.448 1.667 C 380.419 1.667,380.175 1.910,379.906 2.208 M378.491 3.625 L 377.917 4.250 378.542 3.676 C 379.123 3.141,379.243 3.000,379.116 3.000 C 379.088 3.000,378.807 3.281,378.491 3.625 M377.073 5.042 L 376.583 5.583 377.125 5.094 C 377.630 4.638,377.743 4.500,377.615 4.500 C 377.586 4.500,377.342 4.744,377.073 5.042 M375.740 6.375 L 375.250 6.917 375.792 6.427 C 376.297 5.971,376.410 5.833,376.281 5.833 C 376.252 5.833,376.009 6.077,375.740 6.375 M374.324 7.792 L 373.750 8.417 374.375 7.842 C 374.957 7.308,375.077 7.167,374.949 7.167 C 374.922 7.167,374.640 7.448,374.324 7.792 M372.906 9.208 L 372.417 9.750 372.958 9.260 C 373.463 8.804,373.577 8.667,373.448 8.667 C 373.419 8.667,373.175 8.910,372.906 9.208 M371.573 10.542 L 371.083 11.083 371.625 10.594 C 372.130 10.138,372.243 10.000,372.115 10.000 C 372.086 10.000,371.842 10.244,371.573 10.542 M370.158 11.958 L 369.583 12.583 370.208 12.009 C 370.790 11.474,370.910 11.333,370.783 11.333 C 370.755 11.333,370.474 11.615,370.158 11.958 M368.740 13.375 L 368.250 13.917 368.792 13.427 C 369.297 12.971,369.410 12.833,369.281 12.833 C 369.252 12.833,369.009 13.077,368.740 13.375 M367.406 14.708 L 366.917 15.250 367.458 14.760 C 367.963 14.304,368.077 14.167,367.948 14.167 C 367.919 14.167,367.675 14.410,367.406 14.708 M365.991 16.125 L 365.417 16.750 366.042 16.176 C 366.623 15.641,366.743 15.500,366.616 15.500 C 366.588 15.500,366.307 15.781,365.991 16.125 M364.573 17.542 L 364.083 18.083 364.625 17.594 C 365.130 17.138,365.243 17.000,365.115 17.000 C 365.086 17.000,364.842 17.244,364.573 17.542 M363.240 18.875 L 362.750 19.417 363.292 18.927 C 363.797 18.471,363.910 18.333,363.781 18.333 C 363.752 18.333,363.509 18.577,363.240 18.875 M361.824 20.292 L 361.250 20.917 361.875 20.342 C 362.457 19.808,362.577 19.667,362.449 19.667 C 362.422 19.667,362.140 19.948,361.824 20.292 M360.406 21.708 L 359.917 22.250 360.458 21.760 C 360.963 21.304,361.077 21.167,360.948 21.167 C 360.919 21.167,360.675 21.410,360.406 21.708 M359.073 23.042 L 358.583 23.583 359.125 23.094 C 359.630 22.638,359.743 22.500,359.615 22.500 C 359.586 22.500,359.342 22.744,359.073 23.042 M246.575 23.875 L 245.917 24.583 246.625 23.925 C 247.015 23.562,247.333 23.243,247.333 23.216 C 247.333 23.090,247.188 23.216,246.575 23.875 M357.658 24.458 L 357.083 25.083 357.708 24.509 C 358.290 23.974,358.410 23.833,358.283 23.833 C 358.255 23.833,357.974 24.115,357.658 24.458 M356.240 25.875 L 355.750 26.417 356.292 25.927 C 356.797 25.471,356.910 25.333,356.781 25.333 C 356.752 25.333,356.509 25.577,356.240 25.875 M354.906 27.208 L 354.417 27.750 354.958 27.260 C 355.463 26.804,355.577 26.667,355.448 26.667 C 355.419 26.667,355.175 26.910,354.906 27.208 M353.491 28.625 L 352.917 29.250 353.542 28.676 C 354.123 28.141,354.243 28.000,354.116 28.000 C 354.088 28.000,353.807 28.281,353.491 28.625 M386.240 39.375 L 385.750 39.917 386.292 39.427 C 386.797 38.971,386.910 38.833,386.781 38.833 C 386.752 38.833,386.509 39.077,386.240 39.375 M384.991 40.625 L 384.417 41.250 385.042 40.676 C 385.623 40.141,385.743 40.000,385.616 40.000 C 385.588 40.000,385.307 40.281,384.991 40.625 M383.573 42.042 L 383.083 42.583 383.625 42.094 C 384.130 41.638,384.243 41.500,384.115 41.500 C 384.086 41.500,383.842 41.744,383.573 42.042 M382.158 43.458 L 381.583 44.083 382.208 43.509 C 382.790 42.974,382.910 42.833,382.783 42.833 C 382.755 42.833,382.474 43.115,382.158 43.458 M380.824 44.792 L 380.250 45.417 380.875 44.842 C 381.457 44.308,381.577 44.167,381.449 44.167 C 381.422 44.167,381.140 44.448,380.824 44.792 M379.324 46.292 L 378.750 46.917 379.375 46.342 C 379.957 45.808,380.077 45.667,379.949 45.667 C 379.922 45.667,379.640 45.948,379.324 46.292 M18.833 100.385 C 18.833 100.414,19.077 100.658,19.375 100.927 L 19.917 101.417 19.427 100.875 C 18.971 100.370,18.833 100.257,18.833 100.385 M154.740 173.042 L 154.250 173.583 154.792 173.094 C 155.090 172.825,155.333 172.581,155.333 172.552 C 155.333 172.423,155.196 172.537,154.740 173.042 M153.406 174.375 L 152.917 174.917 153.458 174.427 C 153.756 174.158,154.000 173.914,154.000 173.885 C 154.000 173.757,153.862 173.870,153.406 174.375 M152.073 175.708 L 151.583 176.250 152.125 175.760 C 152.423 175.491,152.667 175.248,152.667 175.219 C 152.667 175.090,152.529 175.203,152.073 175.708 M150.573 177.208 L 150.083 177.750 150.625 177.260 C 150.923 176.991,151.167 176.748,151.167 176.719 C 151.167 176.590,151.029 176.703,150.573 177.208 M149.158 178.625 L 148.583 179.250 149.208 178.676 C 149.790 178.141,149.910 178.000,149.783 178.000 C 149.755 178.000,149.474 178.281,149.158 178.625 M147.824 179.958 L 147.250 180.583 147.875 180.009 C 148.457 179.474,148.577 179.333,148.449 179.333 C 148.422 179.333,148.140 179.615,147.824 179.958 M146.491 181.292 L 145.917 181.917 146.542 181.342 C 147.123 180.808,147.243 180.667,147.116 180.667 C 147.088 180.667,146.807 180.948,146.491 181.292 M145.075 182.708 L 144.417 183.417 145.125 182.758 C 145.515 182.395,145.833 182.077,145.833 182.050 C 145.833 181.923,145.688 182.050,145.075 182.708 M143.658 184.125 L 143.083 184.750 143.708 184.176 C 144.290 183.641,144.410 183.500,144.283 183.500 C 144.255 183.500,143.974 183.781,143.658 184.125 M137.916 189.875 L 132.917 194.917 137.958 189.918 C 140.731 187.168,143.000 184.900,143.000 184.876 C 143.000 184.758,142.561 185.190,137.916 189.875 " stroke="none" fill="#ecb4a4" fill-rule="evenodd"></path></g></svg>